<?xml version="1.0" encoding="UTF-8"?>
<svg width="24px" height="24px" viewBox="0 0 24 24" version="1.1" xmlns="http://www.w3.org/2000/svg" xmlns:xlink="http://www.w3.org/1999/xlink">
    <title>Icons/activity</title>
    <g id="Icons/activity" stroke="none" stroke-width="1" fill="none" fill-rule="evenodd">
        <rect id="bg" fill-opacity="0.04" fill="#000000" x="0" y="0" width="24" height="24" rx="2"></rect>
        <path d="M12.1435267,7.95774648 C12.6269274,7.95774648 13.0758203,8.18509693 13.3175044,8.57479272 L13.3175044,8.57479272 L13.9735736,9.61405253 C14.5951026,10.5559112 15.7000323,11.2054448 16.9776305,11.2054448 L16.9776305,11.2054448 L16.9776305,12.5045424 C15.4583481,12.5045424 14.1117019,11.8550088 13.2139486,10.815749 L13.2139486,10.815749 L12.7995959,12.7643802 L14.2152901,14.0959347 L14.2152901,19 L12.8341038,19 L12.8341038,15.1027376 L11.3493292,13.80364 L10.1408114,19 L8.690577,19 L10.5897042,9.84143343 L9.38118637,10.3285912 L9.38118637,12.5045729 L8,12.5045729 L8,9.4517072 L11.6255859,8.05517803 C11.7982221,7.99023382 11.9708906,7.95774648 12.1435267,7.95774648 Z M13.1151616,5 C13.8615306,5 14.4722134,5.57676282 14.4722452,6.28167512 C14.4722452,6.98661747 13.8615624,7.56338028 13.1151616,7.56338028 C12.3687608,7.56338028 11.7580779,6.9866475 11.7580779,6.28170516 C11.7580779,5.57676282 12.3687926,5 13.1151616,5 Z" id="Combined-Shape" fill="#0074B6"></path>
    </g>
</svg>