<?xml version="1.0" encoding="UTF-8"?>
<svg width="64px" height="64px" viewBox="0 0 64 64" version="1.1" xmlns="http://www.w3.org/2000/svg" xmlns:xlink="http://www.w3.org/1999/xlink">
    <title>browse</title>
    <g id="Web" stroke="none" stroke-width="1" fill="none" fill-rule="evenodd">
        <g id="Frac-dictionary" transform="translate(-430.000000, -1060.000000)" fill="#000000">
            <g id="browse" transform="translate(430.000000, 1060.000000)">
                <rect id="Rectangle" fill-opacity="0.04" x="0" y="0" width="64" height="64" rx="8"></rect>
                <path d="M17.5625731,39.394152 C18.2924561,38.6685965 19.4712865,38.6685965 20.2011696,39.394152 C20.291345,39.4768421 20.3700585,39.5712281 20.4350877,39.6748538 C20.5031579,39.775731 20.5626316,39.8821637 20.6128655,39.9929825 C20.6737427,40.1054386 20.7208772,40.2247953 20.7532164,40.348538 C20.767076,40.4697661 20.767076,40.5922222 20.7532164,40.7134503 C20.7676023,40.8346784 20.7676023,40.9571345 20.7532164,41.0783626 C20.7239181,41.2149708 20.6767251,41.347076 20.6128655,41.471345 C20.5667836,41.5842105 20.507076,41.6910526 20.4350877,41.7894737 C20.3700585,41.8930994 20.291345,41.9874854 20.2011696,42.0701754 C20.1184795,42.1603509 20.0240936,42.2390643 19.9204678,42.3040936 C19.8187719,42.3761988 19.7088304,42.4359064 19.5929825,42.4818713 C19.4821053,42.5298246 19.365848,42.564386 19.2467836,42.5847953 C19.1255556,42.5987719 19.0030994,42.5987719 18.8818713,42.5847953 C18.7591813,42.5867836 18.6366667,42.5742105 18.5169591,42.5473684 C18.3948538,42.5270175 18.2754971,42.4924561 18.1614035,42.4444444 C18.0485965,42.3981871 17.9418129,42.3384795 17.8432749,42.2666667 C17.7396491,42.2016374 17.6452632,42.122924 17.5625731,42.0327485 C17.2111696,41.6833918 17.0126316,41.2089474 17.0105263,40.7134503 C17.0090643,40.5907602 17.0215789,40.4683626 17.0479532,40.348538 C17.0677778,40.2263158 17.1023392,40.1069006 17.1508772,39.9929825 C17.2011111,39.8821637 17.2605848,39.775731 17.328655,39.6748538 C17.3936842,39.5712281 17.4723977,39.4768421 17.5625731,39.394152 Z M36.6596491,38.8421053 C37.6931579,38.8421053 38.5309942,39.6799415 38.5309942,40.7134503 C38.5309942,41.7469591 37.6931579,42.5847953 36.6596491,42.5847953 L36.6596491,42.5847953 L24.4959064,42.5847953 C23.4623977,42.5847953 22.6245614,41.7469591 22.6245614,40.7134503 C22.6245614,39.6799415 23.4623977,38.8421053 24.4959064,38.8421053 L24.4959064,38.8421053 Z M17.5625731,30.9730994 C18.2924561,30.2475439 19.4712865,30.2475439 20.2011696,30.9730994 C20.2915205,31.055614 20.3702339,31.1500585 20.4350877,31.2538012 C20.5050877,31.3567836 20.5646784,31.4664912 20.6128655,31.5812865 C20.6737427,31.6904678 20.7208772,31.8067251 20.7532164,31.9274854 C20.7671345,32.0487135 20.7671345,32.1711696 20.7532164,32.2923977 C20.7676023,32.4136257 20.7676023,32.5360819 20.7532164,32.6573099 C20.7239766,32.7939181 20.6767836,32.9260819 20.6128655,33.0502924 C20.5667251,33.1631579 20.5070175,33.2699415 20.4350877,33.3684211 C20.3700585,33.4720468 20.291345,33.5664327 20.2011696,33.6491228 C20.1184795,33.7392982 20.0240936,33.8180117 19.9204678,33.8830409 C19.8187719,33.9551462 19.7088304,34.0148538 19.5929825,34.0608187 C19.4821053,34.1087719 19.365848,34.1433333 19.2467836,34.1637427 C19.1255556,34.1777193 19.0030994,34.1777193 18.8818713,34.1637427 C18.7591813,34.165731 18.6366667,34.1531579 18.5169591,34.1263158 C18.3948538,34.1059649 18.2754971,34.0714035 18.1614035,34.0233918 C18.0485965,33.9771345 17.9418129,33.9174269 17.8432749,33.845614 C17.7396491,33.7805848 17.6452632,33.7018713 17.5625731,33.6116959 C17.4719883,33.5267836 17.3904678,33.4326901 17.3192982,33.3309942 C17.254152,33.23 17.1977778,33.1235673 17.1508772,33.0128655 C17.0616959,32.782924 17.014152,32.5390058 17.0105263,32.2923977 C17.0125731,31.7969006 17.2111111,31.3224561 17.5625731,30.9730994 Z M45.0807018,30.4210526 C46.1142105,30.4210526 46.9520468,31.2588889 46.9520468,32.2923977 C46.9520468,33.3259064 46.1142105,34.1637427 45.0807018,34.1637427 L45.0807018,34.1637427 L24.4959064,34.1637427 C23.4623977,34.1637427 22.6245614,33.3259064 22.6245614,32.2923977 C22.6245614,31.2588889 23.4623977,30.4210526 24.4959064,30.4210526 L24.4959064,30.4210526 Z M17.5625731,22.5520468 C18.2924561,21.8264912 19.4712865,21.8264912 20.2011696,22.5520468 C20.5525731,22.9014035 20.7511111,23.375848 20.7532164,23.871345 C20.767193,23.9925731 20.767193,24.1150292 20.7532164,24.2362573 C20.7196491,24.3595906 20.6725731,24.4788304 20.6128655,24.5918129 C20.5626316,24.7026316 20.5031579,24.8090643 20.4350877,24.9099415 C20.3678947,25.0148538 20.2894737,25.1121053 20.2011696,25.2 C19.8502924,25.5480117 19.3760234,25.7430994 18.8818713,25.7426901 C18.7606433,25.7562573 18.6381871,25.7562573 18.5169591,25.7426901 C18.3802339,25.7139181 18.2480117,25.6666667 18.1239766,25.6023392 C18.0112281,25.5560234 17.904386,25.4963158 17.805848,25.4245614 C17.704386,25.360117 17.6102924,25.2847953 17.5251462,25.2 C17.4368421,25.1121053 17.3584211,25.0148538 17.2912281,24.9099415 C17.2231579,24.8090643 17.1636842,24.7026316 17.1134503,24.5918129 C17.0661988,24.4774269 17.0316959,24.3581871 17.0105263,24.2362573 C16.9965497,24.1150292 16.9965497,23.9925731 17.0105263,23.871345 C17.0125731,23.375848 17.2111111,22.9014035 17.5625731,22.5520468 Z M43.2093567,22 C44.2428655,22 45.0807018,22.8378363 45.0807018,23.871345 C45.0807018,24.9048538 44.2428655,25.7426901 43.2093567,25.7426901 L43.2093567,25.7426901 L24.4959064,25.7426901 C23.4623977,25.7426901 22.6245614,24.9048538 22.6245614,23.871345 C22.6245614,22.8378363 23.4623977,22 24.4959064,22 L24.4959064,22 Z" id="Combined-Shape" fill-opacity="0.4"></path>
            </g>
        </g>
    </g>
</svg>