<?xml version="1.0" encoding="UTF-8"?>
<svg width="24px" height="24px" viewBox="0 0 24 24" version="1.1" xmlns="http://www.w3.org/2000/svg" xmlns:xlink="http://www.w3.org/1999/xlink">
    <title>Icons/competency</title>
    <g id="Icons/competency" stroke="none" stroke-width="1" fill="none" fill-rule="evenodd">
        <rect id="bg" fill-opacity="0.04" fill="#000000" x="0" y="0" width="24" height="24" rx="2"></rect>
        <path d="M16.2856641,11.1428536 L16.2856641,8.14284728 C16.2856641,7.90614543 16.0937872,7.71426778 15.8570864,7.71426778 L12.8571177,7.71426778 C12.8571177,6.76751063 12.0896103,6 11.142832,6 C10.1960537,6 9.42854632,6.76751063 9.42854632,7.71429289 L6.42857771,7.71429289 C6.19187685,7.71429289 6,7.90617055 6,8.14284728 L6,11.2036989 C6.13964497,11.1651024 6.28368444,11.1446616 6.42857771,11.1428536 C7.37535601,11.1428536 8.14286342,11.9103642 8.14286342,12.8571464 C8.14286342,13.8039287 7.37535601,14.5714393 6.42857771,14.5714393 C6.28368444,14.5696062 6.13964497,14.5491654 6,14.5105688 L6,17.5714205 C6,17.8081223 6.19187685,18 6.42857771,18 L9.48941656,18 C9.4508202,17.8603545 9.43037946,17.7163144 9.42857143,17.5714205 C9.42857143,16.6246382 10.1960788,15.8571276 11.1428571,15.8571276 C12.0896354,15.8571276 12.8571429,16.6246382 12.8571429,17.5714205 C12.8553348,17.7162893 12.834869,17.8603293 12.7962977,18 L15.8571366,18 C16.0938374,18 16.2857143,17.8081223 16.2857143,17.5714205 L16.2857143,14.5714142 C17.2324926,14.5714142 18,13.8039036 18,12.8571213 C18,11.9103391 17.2324424,11.1428536 16.2856641,11.1428536 Z" id="Path" fill="#0074B6"></path>
    </g>
</svg>