<?xml version="1.0" encoding="UTF-8"?>
<svg width="24px" height="24px" viewBox="0 0 24 24" version="1.1" xmlns="http://www.w3.org/2000/svg" xmlns:xlink="http://www.w3.org/1999/xlink">
    <title>Icons/dictionary</title>
    <g id="Icons/dictionary" stroke="none" stroke-width="1" fill="none" fill-rule="evenodd">
        <rect id="bg" fill-opacity="0.04" fill="#000000" x="0" y="0" width="24" height="24" rx="2"></rect>
        <g id="Logos/iGOT_symbol-Copy" transform="translate(5.000000, 5.000000)" fill="#F69953">
            <path d="M10.839143,6.82706278 C11.6152144,6.82706278 12.2443446,7.47749057 12.2443446,8.27983391 C12.2443446,8.70460392 12.068014,9.08679552 11.7869009,9.35243854 L11.7178173,9.41273285 L12.1516521,10.8961347 C12.5198826,12.1689542 11.8247516,13.5102887 10.5957723,13.8983825 L10.5957723,13.8983825 L10.4208775,13.9450393 C9.65956221,14.1160151 8.86054828,13.8831217 8.2966594,13.3155237 C8.63861421,13.1614468 8.93305071,12.913201 9.14782214,12.5978898 C9.57331238,12.9481697 10.1696586,12.9717953 10.6198294,12.6562068 C11.0700003,12.3406183 11.269448,11.7591081 11.1121415,11.2208203 L11.1121415,11.2208203 L10.6740742,9.72254067 C10.6794181,9.72320142 10.6847624,9.72382993 10.690107,9.72442627 C9.98434173,9.64785529 9.43394149,9.03029695 9.43394149,8.27983391 C9.43394149,7.47749057 10.0630717,6.82706278 10.839143,6.82706278 Z M7.46665933,9.99034065 C8.24273071,9.99034065 8.87186087,10.6407684 8.87186087,11.4431118 C8.87186087,12.2454551 8.24273071,12.8958829 7.46665933,12.8958829 C7.16883922,12.8958829 6.89265867,12.8000965 6.66536816,12.6366968 L6.69083571,12.6539003 L5.45662857,13.5330018 C4.39617685,14.2834444 2.94858654,14.0075861 2.2166232,12.9155741 L2.2166232,12.9155741 L2.12033463,12.7576007 C1.73078185,12.060152 1.70179796,11.2024699 2.05282411,10.474306 C2.29890926,10.7639206 2.61720175,10.9781021 2.97297717,11.093484 C2.77961544,11.6192944 2.93948567,12.2140085 3.36754484,12.5612678 C3.795604,12.9085272 4.39236131,12.9276208 4.84037151,12.6083918 L4.84037151,12.6083918 L6.08698644,11.7201954 C6.07023207,11.6305003 6.06145779,11.5378654 6.06145779,11.4431118 C6.06145779,10.6407684 6.69058795,9.99034065 7.46665933,9.99034065 Z M0.551220151,4.34756213 C1.05923856,3.73101397 1.83660025,3.41587139 2.62125353,3.51850779 C2.43804667,3.85438163 2.34756701,4.23581761 2.35968288,4.62121359 C1.81569085,4.60604955 1.32539607,4.95845889 1.14967379,5.49093223 C0.973951516,6.02340556 1.15365619,6.61214584 1.59317083,6.94389708 L1.59317083,6.94389708 L2.81552687,7.86763198 C2.80966514,7.87116116 2.80383266,7.87473167 2.79802974,7.87834307 C3.01019615,7.74524107 3.25872091,7.66896991 3.52447645,7.66896991 C4.30054783,7.66896991 4.92967799,8.3193977 4.92967799,9.12174104 C4.92967799,9.92408439 4.30054783,10.5745122 3.52447645,10.5745122 C2.74840506,10.5745122 2.1192749,9.92408439 2.1192749,9.12174104 C2.1192749,8.99230776 2.13564729,8.8668279 2.16636776,8.74739429 L2.16287001,8.7646744 L0.952788322,7.8505663 C-0.0829405727,7.06348997 -0.309139201,5.55926392 0.446577163,4.48425053 L0.446577163,4.48425053 Z M8.87059111,2.58164543 C9.46141648,2.58164543 9.96707736,2.95862171 10.1748139,3.49261198 L11.6725291,3.49225289 C12.9569189,3.49729972 13.9965191,4.57326571 14,5.90113997 L14,5.90113997 L13.9935402,6.07534711 C13.9353227,6.88310103 13.487557,7.61183141 12.7954206,8.00765812 C12.7516559,7.62461426 12.607007,7.26134552 12.3772462,6.95746211 C12.8250793,6.63783854 13.0197703,6.0542257 12.8577309,5.51714324 C12.6956916,4.98006079 12.2145939,4.61437321 11.6704129,4.61464986 L11.6704129,4.61464986 L10.1585514,4.61464986 C10.1598039,4.61169054 10.1610464,4.60872793 10.1622789,4.60576208 C9.94831997,5.12404424 9.45047527,5.48718771 8.87059111,5.48718771 C8.09451973,5.48718771 7.46538957,4.83675992 7.46538957,4.03441657 C7.46538957,3.23207323 8.09451973,2.58164543 8.87059111,2.58164543 Z M4.7849253,1.66972524 C5.18183396,0.406708283 6.49051849,-0.288158517 7.71468587,0.114122409 L7.71468587,0.114122409 L7.8731216,0.173742466 C8.59910795,0.478000777 9.13326059,1.14144985 9.28622603,1.94365136 C8.92024073,1.86967991 8.54163604,1.90101179 8.19169254,2.03423077 C8.03422229,1.49575691 7.55631634,1.12574363 7.01220926,1.12102916 C6.46810218,1.11631469 5.98426478,1.47799486 5.81808704,2.01366443 L5.81808704,2.01366443 L5.35504773,3.50406759 L5.35504773,3.50406759 L5.3754572,3.52104131 C5.65657031,3.78668434 5.83290091,4.16887594 5.83290091,4.59364594 C5.83290091,5.39598929 5.20377075,6.04641708 4.42769937,6.04641708 C3.65162798,6.04641708 3.02249782,5.39598929 3.02249782,4.59364594 C3.02249782,3.7913026 3.65162798,3.14087481 4.42769937,3.14087481 L4.326,3.145 Z" id="Combined-Shape"></path>
        </g>
    </g>
</svg>