<?xml version="1.0" encoding="UTF-8"?>
<svg width="24px" height="24px" viewBox="0 0 24 24" version="1.1" xmlns="http://www.w3.org/2000/svg" xmlns:xlink="http://www.w3.org/1999/xlink">
    <title>Icons/others/hash_symbol</title>
    <g id="Icons/others/hash_symbol" stroke="none" stroke-width="1" fill="none" fill-rule="evenodd">
        <rect id="Rectangle" opacity="0" x="0" y="0" width="24" height="24"></rect>
        <path d="M19,10 L19,8 L16.498,8 L16.998,4 L14.998,4 L14.498,8 L10.499,8 L10.999,4 L8.999,4 L8.499,8 L5,8 L5,10 L8.249,10 L7.75,14 L5,14 L5,16 L7.5,16 L7,20 L9,20 L9.5,16 L13.5,16 L12.999,20 L15,20 L15.5,16 L19,16 L19,14 L15.75,14 L16.248,10 L19,10 Z M13.5571365,14 L10,14 L10.4437528,10 L14,10 L13.5571365,14 Z" id="Shape" fill-opacity="0.6" fill="#000000"></path>
    </g>
</svg>