<?xml version="1.0" encoding="UTF-8"?>
<svg width="24px" height="24px" viewBox="0 0 24 24" version="1.1" xmlns="http://www.w3.org/2000/svg" xmlns:xlink="http://www.w3.org/1999/xlink">
    <title>Icons/role</title>
    <g id="Icons/role" stroke="none" stroke-width="1" fill="none" fill-rule="evenodd">
        <rect id="bg" fill-opacity="0.04" fill="#000000" x="0" y="0" width="24" height="24" rx="2"></rect>
        <path d="M17.7328125,10.9828125 L16.3289063,10.6382812 C16.2515625,10.3921875 16.1531251,10.153125 16.0335937,9.92109375 L16.7507812,8.72578125 C16.8351563,8.58515625 16.8140625,8.409375 16.7015625,8.296875 L15.7031249,7.29843751 C15.5906249,7.18593749 15.4148437,7.16484375 15.2742188,7.24921875 L14.0789063,7.96640625 C13.8468751,7.846875 13.6078125,7.74843751 13.3617188,7.67109375 L13.0242188,6.26718751 C12.9820312,6.1125 12.8414063,6 12.6796875,6 L11.2734375,6 C11.1117188,6 10.9710938,6.1125 10.9289062,6.26718751 L10.5914062,7.67109375 C10.3453125,7.74843749 10.10625,7.846875 9.87421875,7.96640625 L8.67890625,7.24921875 C8.53828125,7.16484375 8.3625,7.18593749 8.25,7.29843749 L7.25156249,8.296875 C7.13906251,8.409375 7.11796875,8.58515625 7.20234375,8.72578125 L7.91953125,9.92109375 C7.8,10.153125 7.70156251,10.3921875 7.62421875,10.6382812 L6.26718751,10.9828125 C6.1125,11.0179688 6,11.1585938 6,11.3203125 L6,12.7265625 C6,12.8882812 6.1125,13.0289062 6.26718749,13.0640625 L7.62421875,13.4085938 C7.70156251,13.6546875 7.8,13.89375 7.91953125,14.1257812 L7.20234375,15.3210938 C7.11796875,15.4617188 7.13906249,15.6375 7.25156249,15.75 L8.25,16.7484375 C8.3625,16.8609375 8.53828125,16.8820312 8.67890625,16.7976563 L9.87421875,16.0804688 C10.10625,16.2 10.3453125,16.2984375 10.5914062,16.3757812 L10.9289062,17.7328125 C10.9710938,17.8875 11.1117188,18 11.2734375,18 L12.6796875,18 C12.8414063,18 12.9820312,17.8875 13.0242188,17.7328125 L13.3617188,16.3757812 C13.6078125,16.2984375 13.8468749,16.2 14.0789063,16.0804688 L15.2742188,16.7976563 C15.4148437,16.8820312 15.5906249,16.8609375 15.7031249,16.7484375 L16.7015625,15.75 C16.8140625,15.6375 16.8351563,15.4617188 16.7507812,15.3210938 L16.0335937,14.1257812 C16.1531251,13.89375 16.2515625,13.6546875 16.3289063,13.4085938 L17.7328125,13.0640625 C17.8875,13.0289062 18,12.8882812 18,12.7265625 L18,11.3203125 C18,11.1585938 17.8875,11.0179688 17.7328125,10.9828125 Z M11.9230769,13.8461538 C10.9464615,13.8461538 10.1538462,13.0535385 10.1538462,12.0769231 C10.1538462,11.1003077 10.9464615,10.3076923 11.9230769,10.3076923 C12.8996923,10.3076923 13.6923077,11.1003077 13.6923077,12.0769231 C13.6923077,13.0535385 12.8996923,13.8461538 11.9230769,13.8461538 Z" id="Shape" fill="#0074B6"></path>
    </g>
</svg>