<?xml version="1.0" encoding="UTF-8"?>
<svg width="64px" height="64px" viewBox="0 0 64 64" version="1.1" xmlns="http://www.w3.org/2000/svg" xmlns:xlink="http://www.w3.org/1999/xlink">
    <title>search</title>
    <g id="Web" stroke="none" stroke-width="1" fill="none" fill-rule="evenodd">
        <g id="Frac-dictionary" transform="translate(-737.000000, -1060.000000)" fill="#000000">
            <g id="search" transform="translate(737.000000, 1060.000000)">
                <rect id="Rectangle" fill-opacity="0.04" x="0" y="0" width="64" height="64" rx="8"></rect>
                <path d="M30,17 C36.627417,17 42,22.372583 42,29 C42,31.6949849 41.1116027,34.1824735 39.611691,36.185583 L47.9628774,44.2919298 C48.6856689,44.993591 48.7058077,46.1473574 48.0079438,46.8738159 C47.3532973,47.5552861 46.2939658,47.6136825 45.5704282,47.0341392 L45.4395523,46.9186467 L37.0127537,38.7387179 C35.0401992,40.1616302 32.6180055,41 30,41 C23.372583,41 18,35.627417 18,29 C18,22.372583 23.372583,17 30,17 Z M30,20.5 C25.3055796,20.5 21.5,24.3055796 21.5,29 C21.5,33.6944204 25.3055796,37.5 30,37.5 C31.6986841,37.5 33.3145715,37.0040136 34.6927372,36.0887856 L34.9651548,35.9001728 L36.025,35.135 L36.8100669,34.0877502 C37.8339605,32.7203557 38.4233464,31.0838973 38.49302,29.348375 L38.5,29 C38.5,24.3055796 34.6944204,20.5 30,20.5 Z" id="Combined-Shape" fill-opacity="0.4"></path>
            </g>
        </g>
    </g>
</svg>